#!OML:ASF F:\VICON\USERDATA\INSTALL\rory3\rory3.ASF
:FULLY-SPECIFIED
:DEGREES
1067
root -0.148674 17.9938 5.32325 -22.415 -111.53 26.9348
lowerback 5.68816 -1.72197 -1.22893
upperback -3.91185 -2.82754 -4.08053
thorax -7.4571 -1.50194 -3.25434
lowerneck -12.0391 -10.1484 -13.8121
upperneck -12.4084 -12.2101 13.3323
head -0.094594 -6.05122 5.71797
rclavicle 7.15625e-015 3.49861e-014
rhumerus 78.9269 -47.1148 -33.9266
rradius 27.5288
rwrist 21.5893
rhand -31.6552 -2.23484
rfingers 7.12502
rthumb -4.91576 -32.1578
lclavicle 7.15625e-015 3.49861e-014
lhumerus -64.0209 -2.72551 70.3497
lradius 41.2322
lwrist 15.6807
lhand -17.339 13.6012
lfingers 7.12502
lthumb 8.90825 43.3931
rfemur -18.4776 5.96642 31.8095
rtibia 45.2623
rfoot 2.03935 4.13589
rtoes 7.21534
lfemur -13.022 4.94344 -14.075
ltibia 44.0453
lfoot -13.5929 6.6833
ltoes -22.3099
1068
root -0.138122 17.8582 5.32915 -22.5935 -110.874 27.0434
lowerback 5.8904 -1.83196 -1.14723
upperback -3.89099 -2.96762 -4.04159
thorax -7.56146 -1.57171 -3.23653
lowerneck -11.8572 -10.0788 -13.4637
upperneck -12.5337 -12.1787 13.1172
head -0.199754 -6.05081 5.61664
rclavicle -2.88238e-014 8.5875e-014
rhumerus 79.0849 -47.1848 -33.9017
rradius 27.6778
rwrist 21.4252
rhand -32.7323 -2.01003
rfingers 7.12502
rthumb -5.95574 -31.9063
lclavicle -2.88238e-014 8.5875e-014
lhumerus -63.7115 -1.89355 68.9559
lradius 40.6158
lwrist 10.8498
lhand -13.2473 10.5376
lfingers 7.12502
lthumb 12.8548 40.1218
rfemur -18.4641 6.05745 32.1429
rtibia 46.2897
rfoot -2.32544 3.42204
rtoes 6.14362
lfemur -13.2906 5.28283 -14.2146
ltibia 44.8284
lfoot -15.3874 6.06892
ltoes -23.4533
1069
root -0.131673 17.7256 5.32884 -22.6535 -110.232 27.114
lowerback 5.97824 -1.97137 -1.01618
upperback -3.9248 -3.14727 -4.04189
thorax -7.66585 -1.6669 -3.28519
lowerneck -11.6212 -9.99086 -13.1935
upperneck -12.6078 -12.1148 12.9553
head -0.292195 -6.03111 5.54628
rclavicle -6.30147e-014 5.40694e-014
rhumerus 79.5783 -47.118 -34.349
rradius 27.6904
rwrist 21.6626
rhand -33.5215 -1.8101
rfingers 7.12502
rthumb -6.71766 -31.6835
lclavicle -6.30147e-014 5.40694e-014
lhumerus -63.7073 -1.92355 69.235
lradius 41.0958
lwrist 11.552
lhand -14.8429 11.9507
lfingers 7.12502
lthumb 11.3163 41.6254
rfemur -18.5885 6.58274 32.3735
rtibia 47.3928
rfoot -6.09723 2.39805
rtoes 2.26111
lfemur -13.6568 5.61171 -14.3144
ltibia 45.6219
lfoot -17.4692 5.33673
ltoes -22.8482
1070
root -0.126472 17.5881 5.32469 -22.7775 -109.565 27.1015
lowerback 6.17634 -2.08377 -0.907657
upperback -3.87387 -3.28647 -4.01842
thorax -7.73877 -1.73777 -3.2977
lowerneck -11.3973 -9.94321 -13.2346
upperneck -12.7593 -12.0642 12.9296
head -0.375966 -6.00859 5.56553
rclavicle 2.74323e-014 -1.59028e-014
rhumerus 79.6735 -47.1356 -34.2307
rradius 27.868
rwrist 21.5512
rhand -33.9691 -2.1277
rfingers 7.12502
rthumb -7.1497 -31.9869
lclavicle 2.74323e-014 -1.59028e-014
lhumerus -63.696 -2.61383 70.8207
lradius 42.2241
lwrist 16.0576
lhand -19.5427 15.2975
lfingers 7.12502
lthumb 6.78129 45.1689
rfemur -18.6077 7.35695 32.4691
rtibia 48.4241
rfoot -9.00645 2.01363
rtoes 2.08968
lfemur -13.9135 5.97565 -14.3909
ltibia 46.4132
lfoot -19.4906 4.42765
ltoes -22.5915
1071
root -0.118355 17.4484 5.32142 -23.0774 -108.81 27.1128
lowerback 6.60803 -2.23112 -0.824304
upperback -3.78913 -3.47811 -3.98662
thorax -7.9127 -1.83119 -3.27181
lowerneck -11.1197 -9.88561 -13.2845
upperneck -12.9897 -12.0068 12.8922
head -0.492669 -5.98459 5.58898
rclavicle -8.36883e-014 1.27222e-014
rhumerus 79.8505 -47.1364 -34.113
rradius 28.0203
rwrist 21.3679
rhand -34.2691 -2.24294
rfingers 7.12502
rthumb -7.43928 -32.0921
lclavicle -8.36883e-014 1.27222e-014
lhumerus -63.5762 -3.13537 72.0604
lradius 43.1379
lwrist 19.4003
lhand -20.261 15.6778
lfingers 7.12502
lthumb 6.08787 45.5703
rfemur -18.5129 8.01848 32.4389
rtibia 49.3225
rfoot -11.8315 1.84698
rtoes 3.39372
lfemur -14.0265 6.17309 -14.4522
ltibia 47.204
lfoot -21.2931 3.35147
ltoes -21.9816
1072
root -0.110715 17.3169 5.31658 -23.2791 -107.977 26.9523
lowerback 7.11178 -2.36332 -0.821035
upperback -3.6764 -3.65853 -3.96395
thorax -8.09361 -1.91448 -3.20768
lowerneck -10.8177 -9.89149 -13.4619
upperneck -13.1871 -12.019 12.9479
head -0.580054 -5.99069 5.65382
rclavicle -2.82274e-014 6.04305e-014
rhumerus 80.3758 -47.1643 -34.2744
rradius 28.0466
rwrist 21.3365
rhand -34.4154 -2.43834
rfingers 7.12502
rthumb -7.5805 -32.2825
lclavicle -2.82274e-014 6.04305e-014
lhumerus -63.1101 -3.19008 72.3912
lradius 43.2595
lwrist 19.3895
lhand -21.3096 16.4951
lfingers 7.12502
lthumb 5.07542 46.4143
rfemur -18.3438 8.52642 32.2465
rtibia 50.0777
rfoot -14.5277 1.50529
rtoes 3.53925
lfemur -14.0734 6.3304 -14.5702
ltibia 48.033
lfoot -22.6633 2.28299
ltoes -22.0456
1073
root -0.106998 17.1994 5.31163 -23.5474 -107.129 26.8199
lowerback 7.61783 -2.46012 -0.774502
upperback -3.55731 -3.79108 -3.98363
thorax -8.27235 -1.97847 -3.21797
lowerneck -10.5154 -9.91676 -13.5539
upperneck -13.3466 -12.0699 12.9004
head -0.665284 -6.01619 5.67032
rclavicle -2.5842e-014 6.36111e-015
rhumerus 80.8626 -47.1987 -34.5
rradius 28.1407
rwrist 21.2225
rhand -34.3217 -2.88036
rfingers 7.12502
rthumb -7.49006 -32.7278
lclavicle -2.5842e-014 6.36111e-015
lhumerus -62.5644 -3.4211 72.7493
lradius 43.2582
lwrist 19.528
lhand -22.4812 17.1058
lfingers 7.12502
lthumb 3.94407 47.049
rfemur -18.0629 9.02163 32.0216
rtibia 50.6828
rfoot -16.6662 1.33997
rtoes 3.44033
lfemur -14.1564 6.7657 -14.6935
ltibia 48.9458
lfoot -23.7775 1.50534
ltoes -23.575
1074
root -0.10068 17.0949 5.31256 -24.2748 -106.44 27.1905
lowerback 8.18043 -2.55435 -0.520894
upperback -3.48041 -3.89594 -3.97293
thorax -8.54034 -2.03905 -3.3129
lowerneck -10.2774 -9.92306 -13.3905
upperneck -13.4706 -12.1235 12.6686
head -0.76011 -6.04858 5.58857
rclavicle 5.1684e-014 -4.45278e-014
rhumerus 81.1652 -47.1765 -34.6473
rradius 28.3836
rwrist 20.7877
rhand -34.2909 -3.25039
rfingers 7.12502
rthumb -7.46037 -33.0988
lclavicle 5.1684e-014 -4.45278e-014
lhumerus -62.1415 -3.80804 73.0766
lradius 43.3931
lwrist 19.7218
lhand -22.4245 17.0573
lfingers 7.12502
lthumb 3.99888 46.9995
rfemur -17.7914 9.42474 31.9678
rtibia 51.1392
rfoot -18.3388 1.16284
rtoes 1.20832
lfemur -14.3478 7.31994 -14.6588
ltibia 49.9099
lfoot -25.0416 0.47353
ltoes -22.7761
1075
root -0.0956253 16.9995 5.3198 -25.9455 -106.069 28.656
lowerback 8.59828 -2.63741 0.127024
upperback -3.43768 -3.91951 -3.85727
thorax -8.77585 -2.07784 -3.53567
lowerneck -10.166 -9.9368 -13.1644
upperneck -13.4568 -12.179 12.4255
head -0.79937 -6.07987 5.48222
rclavicle 1.73937e-014 4.13472e-014
rhumerus 81.2274 -47.0787 -34.7031
rradius 28.7471
rwrist 19.9288
rhand -34.6564 -3.10017
rfingers 7.12502
rthumb -7.81319 -32.9358
lclavicle 1.73937e-014 4.13472e-014
lhumerus -61.4997 -3.90753 73.2431
lradius 43.2222
lwrist 19.612
lhand -22.6796 17.4521
lfingers 7.12502
lthumb 3.75247 47.3988
rfemur -17.568 9.44165 32.3052
rtibia 51.4129
rfoot -19.757 0.868454
rtoes -1.74975
lfemur -14.6247 7.82973 -14.2686
ltibia 50.8509
lfoot -26.0634 -0.637031
ltoes -20.7259
1076
root -0.102597 16.9327 5.32259 -27.2913 -105.778 29.8971
lowerback 8.70237 -2.63897 0.701413
upperback -3.36357 -3.83606 -3.77606
thorax -8.78385 -2.06263 -3.78427
lowerneck -10.2292 -10.0599 -13.1536
upperneck -13.3714 -12.3331 12.4059
head -0.749152 -6.15227 5.456
rclavicle -2.93207e-014 3.18055e-015
rhumerus 81.1876 -47.0898 -34.7319
rradius 29.0574
rwrist 18.8793
rhand -35.2489 -2.36774
rfingers 7.12502
rthumb -8.38503 -32.1813
lclavicle -2.93207e-014 3.18055e-015
lhumerus -60.5792 -3.90013 73.3637
lradius 42.7771
lwrist 19.3568
lhand -23.0574 18.0654
lfingers 7.12502
lthumb 3.38766 48.0182
rfemur -17.335 9.20591 32.5821
rtibia 51.5001
rfoot -21.0155 0.666916
rtoes -2.79348
lfemur -14.8757 8.38132 -13.9691
ltibia 51.6461
lfoot -26.6967 -1.58369
ltoes -18.4893
1077
root -0.11483 16.8946 5.31771 -27.0977 -105.31 29.6621
lowerback 8.63238 -2.60481 0.716938
upperback -3.34222 -3.78908 -3.8039
thorax -8.71921 -2.04123 -3.83357
lowerneck -10.3082 -10.1774 -13.2523
upperneck -13.3132 -12.4649 12.4627
head -0.694567 -6.21071 5.47098
rclavicle 4.67144e-014 8.5875e-014
rhumerus 81.4413 -47.041 -35.1157
rradius 29.3459
rwrist 18.225
rhand -35.5516 -2.01883
rfingers 7.12502
rthumb -8.67713 -31.8205
lclavicle 4.67144e-014 8.5875e-014
lhumerus -59.9385 -4.17323 73.5346
lradius 42.5332
lwrist 19.3875
lhand -23.2789 18.5382
lfingers 7.12502
lthumb 3.17374 48.4943
rfemur -17.1535 9.05856 32.3991
rtibia 51.4608
rfoot -22.0056 0.506177
rtoes -1.37506
lfemur -15.1001 9.00087 -14.1942
ltibia 52.1409
lfoot -27.1316 -2.25431
ltoes -16.9451
1078
root -0.127456 16.8731 5.31317 -26.7518 -105.024 29.4282
lowerback 8.37612 -2.56349 0.693793
upperback -3.39538 -3.73619 -3.80252
thorax -8.62122 -2.01537 -3.83642
lowerneck -10.3851 -10.1881 -13.0453
upperneck -13.2702 -12.4934 12.3207
head -0.691096 -6.22733 5.38977
rclavicle -3.05134e-014 6.36111e-015
rhumerus 81.5533 -46.8518 -35.4003
rradius 29.598
rwrist 17.6284
rhand -35.7449 -2.05559
rfingers 7.12502
rthumb -8.86367 -31.8494
lclavicle -3.05134e-014 6.36111e-015
lhumerus -59.4385 -4.25956 73.4823
lradius 42.2865
lwrist 19.4213
lhand -23.167 18.7634
lfingers 7.12502
lthumb 3.28186 48.7179
rfemur -17.1294 8.91775 32.2972
rtibia 51.3276
rfoot -22.7354 0.116919
rtoes -0.932521
lfemur -15.3322 9.58014 -14.3806
ltibia 52.3107
lfoot -27.3199 -2.67871
ltoes -16.4946
1079
root -0.143314 16.8741 5.30779 -25.925 -104.611 28.5369
lowerback 8.17986 -2.53165 0.381751
upperback -3.40292 -3.73304 -3.83821
thorax -8.49582 -1.99875 -3.70552
lowerneck -10.3807 -10.2026 -12.9268
upperneck -13.2554 -12.5228 12.2574
head -0.696017 -6.24374 5.35037
rclavicle 5.58585e-014 1.74931e-014
rhumerus 81.2891 -46.6371 -35.1606
rradius 29.6475
rwrist 17.1769
rhand -35.8699 -1.91382
rfingers 7.12502
rthumb -8.98423 -31.7025
lclavicle 5.58585e-014 1.74931e-014
lhumerus -58.9067 -3.9504 73.3262
lradius 41.9398
lwrist 19.4062
lhand -23.0438 19.2016
lfingers 7.12502
lthumb 3.40081 49.1542
rfemur -16.9535 8.44353 31.9502
rtibia 51.1234
rfoot -23.1842 -0.255463
rtoes -1.45101
lfemur -15.2042 9.69354 -14.8213
ltibia 52.1449
lfoot -27.1672 -2.76174
ltoes -16.3527
1080
root -0.163993 16.8981 5.30116 -24.6215 -104.015 26.9648
lowerback 8.14513 -2.49636 -0.114488
upperback -3.37998 -3.76075 -3.99124
thorax -8.43105 -1.99271 -3.58562
lowerneck -10.2274 -10.2339 -13.0082
upperneck -13.3166 -12.5588 12.4164
head -0.713745 -6.26227 5.41677
rclavicle -1.72943e-014 -1.27222e-014
rhumerus 80.7451 -46.4371 -34.6834
rradius 29.5797
rwrist 17.1203
rhand -35.8724 -1.92745
rfingers 7.12502
rthumb -8.98664 -31.716
lclavicle -1.72943e-014 -1.27222e-014
lhumerus -58.5065 -3.86899 73.2547
lradius 41.7245
lwrist 19.7141
lhand -23.2611 20.0069
lfingers 7.12502
lthumb 3.19099 49.9628
rfemur -16.5396 7.73846 31.3378
rtibia 50.8292
rfoot -23.2176 -0.444018
rtoes -2.06866
lfemur -14.7244 9.54385 -15.4432
ltibia 51.72
lfoot -26.7329 -3.05782
ltoes -15.8575
